<svg width="206" height="45" viewBox="0 0 206 45" fill="none" xmlns="http://www.w3.org/2000/svg"><path d="M49.07 20.595h2.1v13.59h7.949v2.007h-10.05V20.595zm12.215 7.809c0-1.078.205-2.099.616-3.063a8.13 8.13 0 0 1 1.722-2.557 8.113 8.113 0 0 1 2.545-1.736 7.71 7.71 0 0 1 3.108-.626c1.082 0 2.107.209 3.076.626a8.227 8.227 0 0 1 2.566 1.736 8.183 8.183 0 0 1 1.743 2.557c.42.963.629 1.992.629 3.084 0 1.094-.21 2.122-.629 3.085a8 8 0 0 1-1.732 2.535 8.103 8.103 0 0 1-2.555 1.704c-.968.41-2 .614-3.097.614a7.951 7.951 0 0 1-3.109-.604 7.958 7.958 0 0 1-2.544-1.693 7.89 7.89 0 0 1-1.722-2.524c-.411-.955-.617-2.002-.617-3.138zm2.165 0c0 .835.148 1.607.444 2.32a5.84 5.84 0 0 0 1.256 1.887 6.013 6.013 0 0 0 1.863 1.284 5.6 5.6 0 0 0 2.286.464 5.6 5.6 0 0 0 2.285-.464 5.85 5.85 0 0 0 1.84-1.274 6.015 6.015 0 0 0 1.246-1.887 5.862 5.862 0 0 0 .455-2.308c0-.833-.151-1.61-.455-2.33a6.304 6.304 0 0 0-1.245-1.909 5.65 5.65 0 0 0-1.862-1.295 5.702 5.702 0 0 0-2.285-.463c-.824 0-1.593.158-2.307.474a5.872 5.872 0 0 0-1.864 1.295 5.816 5.816 0 0 0-1.223 1.909 6.166 6.166 0 0 0-.434 2.297zm28.87 6.624c-.26.173-.614.366-1.061.582a7.794 7.794 0 0 1-1.57.54 8.53 8.53 0 0 1-1.982.216c-1.199-.015-2.285-.23-3.26-.648a7.436 7.436 0 0 1-2.49-1.704 7.41 7.41 0 0 1-1.57-2.49 8.335 8.335 0 0 1-.542-3.01c0-1.165.187-2.24.563-3.226a7.504 7.504 0 0 1 1.613-2.567 7.454 7.454 0 0 1 2.47-1.693c.945-.403 1.981-.604 3.108-.604.938 0 1.79.126 2.556.378.765.251 1.421.542 1.97.873l-.843 1.984a8.439 8.439 0 0 0-1.581-.84 5.238 5.238 0 0 0-2.036-.388c-.765 0-1.488.15-2.166.452a5.62 5.62 0 0 0-1.798 1.274 6.104 6.104 0 0 0-1.223 1.898 6.113 6.113 0 0 0-.445 2.35c0 .836.134 1.615.401 2.341a5.62 5.62 0 0 0 1.148 1.899c.499.539 1.101.96 1.809 1.261.707.302 1.5.454 2.382.454.795 0 1.501-.123 2.122-.368.621-.244 1.133-.517 1.538-.82l.887 1.856zm1.971 1.164l6.822-16.244h.13l6.844 16.244h-2.404l-5.111-12.965 1.494-.971-5.696 13.936h-2.08zm4.007-5.91h5.825l.693 1.811H97.69l.608-1.811zm12.734-9.687h2.101v13.59h7.949v2.007h-10.049V20.595h-.001zm13.471 0h2.101v15.597h-2.101V20.595zm5.435 15.597c.175-.23.423-.583.748-1.056.325-.475.703-1.037 1.137-1.683a3936.876 3936.876 0 0 1 2.923-4.38l1.527-2.277 1.397-2.07c.433-.64.812-1.195 1.138-1.662.324-.466.573-.809.746-1.024l.282.561h-7.234a2.39 2.39 0 0 1-.823-.15 1.604 1.604 0 0 1-.672-.454 1.058 1.058 0 0 1-.26-.712v-1.467h1.949v.281c0 .245.051.388.151.43.101.044.275.065.52.065h9.4l-9.465 13.83-.13-.239h9.833v2.007h-13.167zm16.59-15.597h10.179v2.007h-8.079v4.745h7.213v2.028h-7.213v4.81h8.382v2.007h-10.483V20.595h.001zm20.965 0h2.1v13.59h7.949v2.007h-10.049V20.595zm11.912 15.597l6.821-16.244h.131l6.844 16.244h-2.404l-5.111-12.965 1.494-.971-5.697 13.936h-2.078zm4.006-5.91h5.827l.693 1.811h-7.126l.606-1.811zm16.763-9.687c1.574 0 2.812.321 3.715.96.902.64 1.353 1.63 1.353 2.967 0 .835-.187 1.553-.562 2.157a3.93 3.93 0 0 1-1.57 1.424c-.672.344-1.463.546-2.372.604l-.304-1.1c1.054.028 1.999.215 2.837.56.837.345 1.501.828 1.992 1.446.491.619.737 1.352.737 2.2 0 .777-.141 1.442-.422 1.996a3.696 3.696 0 0 1-1.17 1.36 5.217 5.217 0 0 1-1.667.777 7.437 7.437 0 0 1-1.938.247h-4.657V20.595h4.028zm.433 6.818c.867 0 1.494-.237 1.885-.713.389-.474.585-1.049.585-1.726 0-.833-.253-1.438-.758-1.811-.506-.374-1.184-.561-2.036-.561h-2.036v4.81h2.36zm.087 6.838c.592 0 1.126-.087 1.603-.26a2.44 2.44 0 0 0 1.137-.809c.281-.366.423-.815.423-1.348 0-.603-.164-1.078-.488-1.423a2.742 2.742 0 0 0-1.246-.744 5.429 5.429 0 0 0-1.559-.227h-2.318v4.811h2.448zM28.464 7.502c-.094.256-.197.508-.31.758-.003.003-.003.009-.006.012 0 .003-.003.003-.003.006-.736 1.692-1.959 2.59-2.034 2.643.344-.726.75-1.671.432-2.475-.275-.692-1.064-.913-1.753-.885-1.423.059-2.77.309-4.193.022-1.367-.277-2.7-1.026-3.366-2.244C15.282 1.761 20.153 0 22.86 0c2.563 0 5.463 1.194 6.033 3.846.04.184.069.371.084.567.085 1.047-.153 2.101-.513 3.089z" fill="#7E57C2"/><path d="M30.416 16.546c.052.198.111.395.178.59.002.003.001.008.003.01 0 .002.003.002.002.005.429 1.322 1.28 2.084 1.333 2.13-.205-.57-.442-1.308-.144-1.888.257-.499.864-.608 1.379-.538 1.063.147 2.054.432 3.143.32 1.046-.11 2.1-.574 2.69-1.44 1.721-2.543-1.804-4.216-3.834-4.411-1.922-.185-4.185.501-4.805 2.449a3.174 3.174 0 0 0-.105.42c-.14.778-.038 1.586.16 2.353z" fill="#26D68D"/><path d="M15.257 33.562c1.442-1.272 2.137-2.571 2.465-3.427h-4.929c.327.855 1.023 2.155 2.464 3.427z" fill="#7E57C2"/><path d="M21.766 9.587l-1.004 2.089.656.313-3.894 8.07a12.448 12.448 0 0 0-2.214-.204c-4.454 0-8.369 2.3-10.603 5.77a12.627 12.627 0 0 0-1.625 3.695 9.864 9.864 0 0 0-.212 1.014 5.585 5.585 0 0 0-.069.47 4.33 4.33 0 0 0-.061.598c-.02.163-.028.326-.034.49-.007.177-.014.353-.014.53 0 .198.007.395.014.592l.02.32c.007.122.02.245.034.367.014.157.028.313.055.462.014.137.041.273.062.402.02.13.04.252.075.374-.007.013 0 .027.007.034.02.143.054.286.089.421.034.144.075.287.116.429.048.177.102.353.164.53.055.178.116.354.185.524.068.17.136.347.212.517.219.504.478 1 .758 1.47a13.312 13.312 0 0 0 1.291 1.77l-.006.006L0 44.98h14.579a12.595 12.595 0 0 0 9.934-3.954 8.603 8.603 0 0 1-1.421-4.757c0-3.192 1.72-5.975 4.29-7.492a12.59 12.59 0 0 0-3.71-5.75l3.908-8.091.656.32 1.004-2.09-7.474-3.58zm-.53 20.548h-1.72c-.288.975-1.034 2.746-2.877 4.468 1.162.75 2.643 1.44 4.539 1.96l-.451 1.638c-2.325-.636-4.105-1.517-5.47-2.478-1.366.96-3.145 1.842-5.47 2.478l-.451-1.639c1.897-.518 3.378-1.209 4.538-1.959-1.843-1.722-2.588-3.493-2.877-4.468h-1.72v-1.722h5.115v-1.721h1.728v1.721h5.115v1.722h.001z" fill="#7E57C2"/><path d="M38.484 41.986c.027-.034.054-.075.088-.11l.151-.19c.116-.15.233-.3.341-.456.048-.068.09-.136.137-.204.103-.164.205-.327.301-.497.041-.068.075-.136.11-.197.095-.184.184-.368.273-.558.02-.062.048-.123.075-.184.082-.205.164-.408.233-.62.014-.054.034-.102.048-.156.068-.232.13-.463.184-.708l.02-.102a7.96 7.96 0 0 0 .13-.83v-.014c.028-.286.049-.579.049-.872 0-.279-.014-.55-.041-.823-.014-.116-.028-.232-.048-.347a4.166 4.166 0 0 0-.062-.422c-.027-.143-.061-.292-.089-.435a4.812 4.812 0 0 1-.075-.286c-.048-.17-.096-.333-.15-.497-.014-.04-.035-.081-.048-.122a8.754 8.754 0 0 0-5.841-5.478v-6.341h.512V19.93h-5.76v1.606h.506v6.321a8.463 8.463 0 0 0-2.146.92 12.512 12.512 0 0 1-2.87 12.25A8.738 8.738 0 0 0 31.858 45h10.637l-4.011-3.015zm-3.659-1.934h-4.539v-7.719h1.772v6.02h2.767v1.7z" fill="#26D68D"/></svg>