<svg width="1230" height="967" viewBox="0 0 1230 967" fill="none" xmlns="http://www.w3.org/2000/svg">
<g clip-path="url(#clip0_22_393)">
<path d="M1054.35 499.572C1009.69 521.563 978.539 568.756 975.894 618.465C974.261 649.103 982.635 679.834 979.142 710.319C971.455 777.245 910.059 824.371 849.618 854.099C789.177 883.827 721.784 906.465 678.102 957.732C652.779 987.439 637.62 1031.16 655.863 1065.67C676.191 1104.11 726.684 1113.59 770.153 1113.27C900.679 1112.32 1025.66 1063.73 1146.17 1013.56C1181.69 998.776 1217.52 983.551 1248.26 960.443C1279.01 937.318 1304.62 905.152 1312.19 867.427C1318.49 835.999 1311.95 803.506 1304 772.47C1283.08 690.824 1252.83 609.647 1211.57 535.995C1180.84 481.109 1109.41 472.464 1054.35 499.572Z" fill="#EED2FF" fill-opacity="0.1"/>
<path d="M1162.18 1084C1114.92 1065.3 1037.17 1019.26 973.514 951.053C923.364 897.32 865.169 811.326 872.654 706.754C884.733 537.965 975.218 465.834 1079.98 382.31C1143.35 331.795 1208.86 279.559 1267.34 199.86C1304.63 149.021 1330.86 98.5255 1345.27 49.8316C1362.05 -6.93748 1362.16 -59.8005 1345.53 -107.3C1320.59 -178.58 1260.67 -236.726 1189.12 -259.049L1189.45 -260C1261.32 -237.576 1321.52 -179.188 1346.54 -107.604C1363.24 -59.9017 1363.15 -6.83629 1346.3 50.1149C1331.87 98.9302 1305.6 149.506 1268.22 200.447C1209.68 280.247 1144.11 332.523 1080.69 383.079C976.102 466.462 885.79 538.471 873.733 706.815C866.269 811.023 924.313 896.794 974.312 950.385C1037.83 1018.47 1115.44 1064.41 1162.59 1083.07L1162.18 1084Z" fill="#D8DAE6" fill-opacity="0.5"/>
</g>
<defs>
<clipPath id="clip0_22_393">
<rect width="1158.73" height="1011.68" fill="white" transform="translate(0 299.132) rotate(-14.9606)"/>
</clipPath>
</defs>
</svg>
