<svg width="57" height="31" viewBox="0 0 57 31" fill="none" xmlns="http://www.w3.org/2000/svg">
<rect x="1" y="1" width="56" height="30" rx="5" fill="#D4DDE9"/>
<rect width="56" height="30" rx="5" fill="#E8ECF3"/>
<g clip-path="url(#clip0_68_8)">
<path d="M26.824 20.1297C24.4002 20.1297 21.9758 20.1319 19.5519 20.1285C18.3363 20.1268 17.3528 19.3484 17.0646 18.1598C17.0163 17.9613 17.0051 17.7497 17.0045 17.5438C17 15.5174 16.9972 13.4904 17.0034 11.464C17.0084 9.95581 18.0965 8.87246 19.5997 8.87133C24.4479 8.86963 29.2962 8.87077 34.1439 8.87077C34.2281 8.87077 34.3141 8.86567 34.3961 8.87982C34.6781 8.92847 34.8899 9.18587 34.8781 9.45459C34.8657 9.73235 34.6444 9.9609 34.3545 9.98919C34.2618 9.99824 34.1675 9.99258 34.0737 9.99258C29.2816 9.99258 24.4895 10.005 19.6974 9.98183C18.7975 9.97787 18.0791 10.59 18.0942 11.5975C18.1235 13.5385 18.1212 15.4812 18.0954 17.4222C18.0824 18.4139 18.8003 19.0197 19.662 19.0163C24.4912 18.9982 29.3209 19.0073 34.1501 19.0118C34.304 19.0118 34.477 19.0282 34.6073 19.0995C34.8196 19.2155 34.9157 19.4265 34.8646 19.676C34.8095 19.9447 34.5893 20.1223 34.2933 20.1257C33.6288 20.1331 32.9643 20.1291 32.2997 20.1291C30.4741 20.1297 28.6491 20.1297 26.824 20.1297Z" fill="#B1BDC8"/>
<path d="M37.4676 8.12298C37.4676 12.3868 37.4676 16.6133 37.4676 20.8777C37.7794 20.8777 38.0754 20.8765 38.3714 20.8777C38.7629 20.8793 39 21.0915 39 21.4383C38.9994 21.7839 38.7641 21.9972 38.3697 21.9978C37.3873 22 36.4048 22 35.4224 21.9972C35.0421 21.9961 34.782 21.7636 34.7826 21.4354C34.7831 21.1079 35.0415 20.881 35.4257 20.8765C35.715 20.8731 36.0049 20.876 36.3183 20.876C36.3183 16.6246 36.3183 12.3913 36.3183 8.12185C36.0251 8.12185 35.7381 8.12354 35.451 8.12128C35.0443 8.11845 34.7814 7.89556 34.7826 7.55896C34.7843 7.22235 35.0477 7.00059 35.4538 7.00003C36.4177 6.99833 37.3817 6.99776 38.345 7.00003C38.7674 7.00059 39.0022 7.20651 39.0006 7.56461C38.9994 7.91819 38.759 8.12128 38.3388 8.12241C38.0591 8.12354 37.7794 8.12298 37.4676 8.12298Z" fill="#B1BDC8"/>
<path d="M25.5815 17.3554C25.3091 17.4374 25.1726 17.2723 25.0799 16.9888C24.9574 16.6149 24.7923 16.2551 24.6586 15.884C24.6091 15.7471 24.5406 15.6956 24.3957 15.6973C23.7975 15.7041 23.1987 15.6928 22.601 15.7086C22.5145 15.7109 22.3892 15.8082 22.3521 15.8925C22.1802 16.2879 22.028 16.693 21.8792 17.098C21.8129 17.2785 21.7219 17.3622 21.5123 17.3599C20.8529 17.3532 20.8461 17.3594 21.0877 16.7512C21.7297 15.1378 22.3808 13.5278 23.015 11.9115C23.1003 11.6943 23.2149 11.6162 23.4306 11.6434C23.5138 11.6536 23.5997 11.6536 23.6829 11.6434C23.871 11.6207 23.971 11.7022 24.039 11.8787C24.5131 13.1148 24.9945 14.3475 25.4736 15.5813C25.6365 16.0011 25.7983 16.422 25.9646 16.8406C26.1522 17.3113 26.1252 17.3554 25.5815 17.3554ZM24.2699 14.8883C24.0143 14.2061 23.7733 13.5617 23.507 12.8506C23.2312 13.564 22.9813 14.2112 22.7195 14.8883C23.2565 14.8883 23.7385 14.8883 24.2699 14.8883Z" fill="#B1BDC8"/>
</g>
<defs>
<clipPath id="clip0_68_8">
<rect width="22" height="15" fill="white" transform="translate(17 7)"/>
</clipPath>
</defs>
</svg>

