<svg width="206" height="45" viewBox="0 0 206 45" fill="none" xmlns="http://www.w3.org/2000/svg">
<path d="M49.0693 20.595H51.1699V34.1855H59.1187V36.1923H49.0693V20.595Z" fill="#7E57C2"/>
<path d="M61.2847 28.4043C61.2847 27.3263 61.4899 26.3051 61.901 25.3407C62.3129 24.3778 62.8867 23.5254 63.6232 22.7843C64.3588 22.0439 65.2077 21.4648 66.1676 21.0477C67.1267 20.6306 68.1633 20.4217 69.276 20.4217C70.3582 20.4217 71.3834 20.6306 72.3516 21.0477C73.3183 21.4648 74.1741 22.0439 74.9181 22.7843C75.6614 23.5254 76.2428 24.377 76.6615 25.3407C77.0803 26.3043 77.29 27.3331 77.29 28.4254C77.29 29.5186 77.0803 30.5473 76.6615 31.5102C76.2428 32.4739 75.6652 33.3187 74.9288 34.0447C74.1923 34.7714 73.3404 35.3391 72.3737 35.7487C71.4062 36.159 70.3734 36.3634 69.2767 36.3634C68.1641 36.3634 67.1282 36.162 66.1684 35.7593C65.2077 35.3573 64.3596 34.7926 63.6239 34.0659C62.8875 33.3399 62.3137 32.4989 61.9018 31.542C61.4906 30.5867 61.2847 29.5405 61.2847 28.4043ZM63.4499 28.4043C63.4499 29.2392 63.5981 30.0114 63.8945 30.7237C64.1901 31.436 64.6096 32.0651 65.15 32.6109C65.6918 33.1582 66.3128 33.5859 67.0135 33.8948C67.7134 34.2036 68.4757 34.3588 69.2988 34.3588C70.1218 34.3588 70.8833 34.2036 71.584 33.8948C72.284 33.5859 72.8973 33.1613 73.4247 32.6215C73.9514 32.0825 74.3664 31.4535 74.6696 30.7343C74.9736 30.0159 75.1248 29.246 75.1248 28.4262C75.1248 27.5927 74.9736 26.8161 74.6696 26.0962C74.3664 25.3778 73.9514 24.7411 73.4247 24.187C72.8973 23.6336 72.2764 23.2021 71.5628 22.8925C70.8476 22.5837 70.0861 22.4292 69.2775 22.4292C68.4544 22.4292 67.6853 22.5874 66.9709 22.9031C66.2558 23.2195 65.6356 23.6518 65.1074 24.1976C64.5807 24.7441 64.1726 25.38 63.8838 26.1067C63.595 26.8335 63.4499 27.5996 63.4499 28.4043Z" fill="#7E57C2"/>
<path d="M92.3197 35.028C92.0598 35.2006 91.7064 35.3944 91.2588 35.6102C90.8111 35.8267 90.2875 36.0061 89.6886 36.1499C89.0897 36.293 88.4286 36.3657 87.7073 36.3657C86.5081 36.3513 85.422 36.1363 84.447 35.7184C83.4727 35.3013 82.642 34.7336 81.9565 34.0144C81.271 33.296 80.7473 32.4656 80.3863 31.5231C80.0253 30.5814 79.8452 29.5784 79.8452 28.5133C79.8452 27.349 80.0322 26.274 80.4076 25.2884C80.783 24.3036 81.3211 23.4474 82.0211 22.7214C82.7218 21.9955 83.5448 21.4307 84.4903 21.028C85.4365 20.6253 86.4723 20.4239 87.5986 20.4239C88.5372 20.4239 89.3892 20.5496 90.1553 20.8017C90.9198 21.053 91.5764 21.3444 92.1259 21.6752L91.2816 23.6594C90.8484 23.3573 90.3209 23.0765 89.7008 22.8183C89.0799 22.5594 88.4012 22.4307 87.6648 22.4307C86.9002 22.4307 86.1775 22.5814 85.4995 22.8834C84.8209 23.1862 84.2212 23.6101 83.7014 24.1567C83.1823 24.7033 82.7735 25.3361 82.4778 26.0545C82.1814 26.7737 82.0332 27.5579 82.0332 28.4058C82.0332 29.2407 82.167 30.0204 82.4345 30.7464C82.7013 31.4731 83.0843 32.106 83.5821 32.645C84.0806 33.184 84.6833 33.6049 85.3909 33.9061C86.0984 34.2082 86.8919 34.3596 87.7734 34.3596C88.5676 34.3596 89.2744 34.237 89.8953 33.9924C90.5162 33.7479 91.0285 33.4754 91.4328 33.1726L92.3197 35.028Z" fill="#7E57C2"/>
<path d="M94.291 36.1923L101.113 19.9478H101.243L108.087 36.1923H105.683L100.572 23.2271L102.066 22.2559L96.3696 36.1923H94.291ZM98.2977 30.2816H104.123L104.816 32.0931H97.6905L98.2977 30.2816Z" fill="#7E57C2"/>
<path d="M111.032 20.595H113.133V34.1855H121.082V36.1923H111.033V20.595H111.032Z" fill="#7E57C2"/>
<path d="M124.503 20.595H126.604V36.1923H124.503V20.595Z" fill="#7E57C2"/>
<path d="M129.938 36.1923C130.113 35.9629 130.361 35.6094 130.686 35.1355C131.011 34.6609 131.389 34.0992 131.823 33.4527C132.256 32.8055 132.722 32.1075 133.219 31.3596C133.718 30.6117 134.227 29.8494 134.746 29.0727C135.266 28.296 135.775 27.5375 136.273 26.7964C136.772 26.056 137.237 25.3656 137.67 24.726C138.103 24.0863 138.482 23.5314 138.808 23.0644C139.132 22.598 139.381 22.2551 139.554 22.0401L139.836 22.6011H132.602C132.328 22.6011 132.053 22.5504 131.779 22.4504C131.505 22.349 131.281 22.1983 131.107 21.997C130.934 21.7956 130.847 21.5587 130.847 21.2846V19.8183H132.796V20.0992C132.796 20.3437 132.847 20.4868 132.947 20.5299C133.048 20.5731 133.222 20.5943 133.467 20.5943H142.867L133.402 34.4232L133.272 34.1855H143.105V36.1923H129.938Z" fill="#7E57C2"/>
<path d="M146.528 20.595H156.707V22.6018H148.628V27.3475H155.841V29.3747H148.628V34.1855H157.01V36.1923H146.527V20.595H146.528Z" fill="#7E57C2"/>
<path d="M167.493 20.595H169.593V34.1855H177.542V36.1923H167.493V20.595H167.493Z" fill="#7E57C2"/>
<path d="M179.405 36.1923L186.226 19.9478H186.357L193.201 36.1923H190.797L185.686 23.2271L187.18 22.2559L181.483 36.1923H179.405ZM183.411 30.2816H189.238L189.931 32.0931H182.805L183.411 30.2816Z" fill="#7E57C2"/>
<path d="M200.174 20.595C201.748 20.595 202.986 20.916 203.889 21.5556C204.791 22.1953 205.242 23.1847 205.242 24.5216C205.242 25.3565 205.055 26.0749 204.68 26.679C204.303 27.2831 203.78 27.757 203.11 28.1029C202.438 28.4474 201.647 28.6495 200.738 28.707L200.434 27.6064C201.488 27.6351 202.433 27.8221 203.271 28.1673C204.108 28.5117 204.772 28.9947 205.263 29.6132C205.754 30.2316 206 30.9652 206 31.813C206 32.5897 205.859 33.2551 205.578 33.8092C205.296 34.3626 204.906 34.816 204.408 35.1688C203.911 35.5208 203.354 35.7797 202.741 35.9455C202.127 36.1105 201.481 36.193 200.803 36.193H196.146V20.595H200.174ZM200.607 27.4126C201.474 27.4126 202.101 27.1756 202.492 26.7002C202.881 26.2256 203.077 25.651 203.077 24.9743C203.077 24.1408 202.824 23.536 202.319 23.1628C201.813 22.7888 201.135 22.6018 200.283 22.6018H198.247V27.4126H200.607ZM200.694 34.2513C201.286 34.2513 201.82 34.1643 202.297 33.9917C202.773 33.8191 203.153 33.5496 203.434 33.1824C203.715 32.816 203.857 32.3671 203.857 31.8342C203.857 31.2309 203.693 30.7562 203.369 30.4111C203.044 30.0651 202.629 29.8176 202.123 29.6669C201.618 29.5163 201.098 29.4398 200.564 29.4398H198.246V34.2513H200.694Z" fill="#7E57C2"/>
<path d="M28.464 7.50189C28.3697 7.75776 28.2672 8.00984 28.1539 8.25965C28.1509 8.26268 28.1509 8.26873 28.1478 8.27176C28.1478 8.27479 28.1448 8.27479 28.1448 8.27782C27.4091 9.97048 26.1863 10.8675 26.1111 10.9205C26.4553 10.1945 26.8619 9.24981 26.5427 8.44587C26.2676 7.75397 25.4787 7.53293 24.7902 7.56094C23.3667 7.61998 22.0208 7.8698 20.5973 7.58289C19.2301 7.30583 17.8971 6.55715 17.2306 5.33914C15.282 1.76079 20.1535 0 22.8598 0C25.4225 0 28.3234 1.19379 28.8926 3.84633C28.9337 4.03028 28.9618 4.21726 28.977 4.41332C29.0621 5.46026 28.8242 6.514 28.464 7.50189Z" fill="#7E57C2"/>
<path d="M30.4165 16.5458C30.4682 16.7441 30.5275 16.9409 30.5936 17.1362C30.5959 17.1385 30.5951 17.1438 30.5974 17.1461C30.5974 17.1484 30.5997 17.1484 30.5989 17.1506C31.0276 18.4731 31.8795 19.2347 31.9319 19.2801C31.7267 18.7108 31.4904 17.9727 31.7883 17.3929C32.0452 16.894 32.6524 16.785 33.1669 16.8554C34.2302 17.0023 35.2212 17.2869 36.3103 17.1749C37.356 17.0658 38.4101 16.601 38.9991 15.735C40.7212 13.1923 37.1956 11.5193 35.1657 11.324C33.2437 11.1393 30.9812 11.8251 30.361 13.7729C30.317 13.9076 30.2828 14.0462 30.2562 14.1923C30.1163 14.9712 30.2182 15.7789 30.4165 16.5458Z" fill="#26D68D"/>
<path d="M15.2573 33.5617C16.699 32.2899 17.3944 30.9909 17.722 30.1347H12.7935C13.1203 30.9902 13.8156 32.2899 15.2573 33.5617Z" fill="#7E57C2"/>
<path d="M21.7661 9.58667L20.7622 11.676L21.4181 11.9886L17.5239 20.059C16.8064 19.9296 16.0685 19.8546 15.31 19.8546C10.8557 19.8546 6.94099 22.1544 4.70738 25.6253C3.98311 26.7479 3.423 27.9932 3.08176 29.3202C2.99284 29.6533 2.92444 29.9871 2.86972 30.3338C2.84236 30.4905 2.81501 30.6472 2.80133 30.8032C2.76713 31.0007 2.74661 31.1976 2.73977 31.402C2.71925 31.5655 2.71241 31.7282 2.70557 31.8917C2.69873 32.0689 2.69189 32.2453 2.69189 32.4224C2.69189 32.62 2.69873 32.8168 2.70557 33.0144C2.71241 33.1234 2.71925 33.2324 2.72609 33.3338C2.73293 33.4565 2.74661 33.5791 2.76029 33.701C2.77397 33.8577 2.78765 34.0136 2.81501 34.1635C2.82869 34.2998 2.85604 34.436 2.87656 34.5647C2.89708 34.6942 2.9176 34.8168 2.9518 34.9387C2.94496 34.9523 2.9518 34.9659 2.95864 34.9727C2.97916 35.1158 3.01336 35.2589 3.04756 35.3944C3.08176 35.5375 3.1228 35.6805 3.16384 35.8228C3.21172 36 3.26644 36.1764 3.328 36.3535C3.38272 36.5306 3.44428 36.707 3.51268 36.8773C3.58108 37.0477 3.64947 37.2241 3.72471 37.3944C3.94359 37.8978 4.20275 38.3944 4.48318 38.8645C4.57894 39.0212 4.6747 39.1779 4.7773 39.327C5.0851 39.7827 5.41265 40.2188 5.77441 40.6336L5.76757 40.6404L0 44.9795H14.5789C14.8183 44.9932 15.0638 45 15.31 45C18.9374 45 22.21 43.4754 24.5127 41.0257C23.6106 39.6578 23.0916 38.025 23.0916 36.2687C23.0916 33.0772 24.8129 30.2937 27.3817 28.7767C26.6985 26.5306 25.3936 24.5511 23.6722 23.0265L27.5801 14.9356L28.2359 15.2559L29.2399 13.1665L21.7661 9.58667ZM21.2364 30.1347H19.5166C19.2278 31.1098 18.4822 32.8811 16.6392 34.6033C17.8005 35.3535 19.2817 36.0439 21.1779 36.5624L20.7265 38.2006C18.4017 37.5647 16.6225 36.6836 15.2568 35.7229C13.8911 36.6836 12.112 37.5647 9.78716 38.2006L9.33572 36.5624C11.2327 36.0439 12.7139 35.3535 13.8744 34.6033C12.0314 32.8811 11.2859 31.1098 10.9971 30.1347H9.27721V28.4133H14.3919V26.6919H16.1202V28.4133H21.2349V30.1347H21.2364Z" fill="#7E57C2"/>
<path d="M38.4836 41.9856C38.511 41.9516 38.5383 41.9107 38.5725 41.8766C38.6204 41.8153 38.6683 41.754 38.723 41.6859C38.8393 41.536 38.9556 41.3861 39.0642 41.2301C39.1121 41.162 39.1532 41.0939 39.201 41.0257C39.3036 40.8622 39.4062 40.6987 39.502 40.5292C39.543 40.461 39.5772 40.3929 39.6114 40.3316C39.7072 40.1476 39.7961 39.9644 39.885 39.7737C39.9055 39.7123 39.9329 39.651 39.9603 39.5897C40.0423 39.3853 40.1244 39.1817 40.1928 38.9705C40.2065 38.916 40.227 38.8683 40.2407 38.8138C40.3091 38.5821 40.3707 38.3513 40.4254 38.106L40.4459 38.0038C40.5006 37.7313 40.5485 37.4527 40.5759 37.1734C40.5759 37.1665 40.5759 37.1665 40.5759 37.1597C40.6032 36.8736 40.6237 36.5814 40.6237 36.2884C40.6237 36.0091 40.6101 35.7373 40.5827 35.4648C40.569 35.349 40.5553 35.2332 40.5348 35.1181C40.5211 34.975 40.5006 34.832 40.4733 34.6964C40.4459 34.5534 40.4117 34.4035 40.3843 34.2612C40.357 34.1658 40.3296 34.0704 40.3091 33.975C40.2612 33.8047 40.2133 33.6419 40.1586 33.4784C40.1449 33.4376 40.1244 33.3967 40.1107 33.3558C39.1744 30.7154 36.9955 28.6533 34.2695 27.8781V21.5367H34.7817V19.9311H29.0225V21.5367H29.5279V27.8584C28.7626 28.0697 28.0451 28.3755 27.3824 28.7774C27.7373 29.9273 27.9289 31.1522 27.9289 32.4247C27.9289 35.7525 26.6308 38.7737 24.5127 41.0265C26.0707 43.4217 28.7755 45.0008 31.8572 45.0008H31.8641C31.8709 45.0008 31.8709 45.0008 31.8778 45.0008H42.4948L38.4836 41.9856ZM34.825 40.0522H30.2863V32.3331H32.0579V38.3535H34.825V40.0522Z" fill="#26D68D"/>
</svg>
