<svg width="175" height="148" viewBox="0 0 175 148" fill="none" xmlns="http://www.w3.org/2000/svg">
<path d="M124.86 123.901C131.435 118.713 137.889 112.609 142.907 104.638C147.924 96.679 151.385 86.6009 150.966 77.4161C150.523 67.6243 145.781 60.0886 139.817 55.7367C133.865 51.3848 126.752 49.7471 119.759 48.1552C104.215 44.6278 88.66 41.1005 73.1165 37.5732C61.3092 34.8933 49.1905 32.2249 36.533 35.5461C23.8754 38.8787 10.3557 49.5066 3.96108 65.7919C-1.51147 79.7066 -0.840875 95.3276 3.09889 107.547C20.5464 161.523 84.6004 155.67 124.86 123.901Z" fill="url(#paint0_linear_78_6)"/>
<path d="M91.7361 26.2882L96.7795 23.3655C97.7684 22.7941 99.1419 22.871 100.669 23.75L95.6258 26.6728C94.0985 25.7938 92.725 25.7059 91.7361 26.2882Z" fill="#EFF0F2"/>
<path d="M172.705 120.717L167.662 123.64C168.64 123.069 169.255 121.86 169.255 120.146L174.298 117.223C174.298 118.937 173.694 120.157 172.705 120.717Z" fill="#EFF0F2"/>
<path d="M169.387 75.5465L174.43 72.6237L174.31 117.223L169.266 120.146L169.387 75.5465Z" fill="#EFF0F2"/>
<path d="M95.615 26.6728L100.658 23.75L168.991 63.1962L163.948 66.1189L95.615 26.6728Z" fill="#EFF0F2"/>
<path d="M163.948 66.119L168.991 63.1962C172.002 64.9323 174.441 69.1516 174.43 72.6237L169.387 75.5465C169.398 72.0743 166.959 67.855 163.948 66.119Z" fill="#EFF0F2"/>
<path d="M163.948 66.1189C166.959 67.855 169.398 72.0743 169.387 75.5465L169.255 120.146C169.244 123.607 166.783 125.003 163.772 123.266L121.359 98.7747L97.1201 112.63L97.1751 84.8092L95.439 83.8093C92.4174 82.0622 89.989 77.8429 90 74.3818L90.1319 29.7823C90.1429 26.3102 92.5932 24.9147 95.6148 26.6618L163.948 66.1189Z" fill="#CED3DE"/>
<path d="M118.217 79.9965C118.217 82.0732 116.744 82.9193 114.931 81.8645C113.118 80.8206 111.646 78.2824 111.646 76.1947C111.646 74.1181 113.118 73.272 114.931 74.3268C116.744 75.3707 118.217 77.9088 118.217 79.9965Z" fill="#6B6CB3"/>
<path d="M127.457 85.3256C127.457 87.4023 125.985 88.2484 124.172 87.1935C122.359 86.1497 120.887 83.6115 120.887 81.5238C120.887 79.4361 122.359 78.6011 124.172 79.6559C125.985 80.7107 127.457 83.2489 127.457 85.3256Z" fill="#6B6CB3"/>
<path d="M136.687 90.6657C136.687 92.7424 135.215 93.5884 133.402 92.5336C131.589 91.4898 130.116 88.9516 130.116 86.8639C130.116 84.7872 131.589 83.9411 133.402 84.996C135.226 86.0398 136.687 88.578 136.687 90.6657Z" fill="#6B6CB3"/>
<path d="M145.928 95.9948C145.928 98.0714 144.456 98.9175 142.643 97.8627C140.83 96.8188 139.357 94.2807 139.357 92.193C139.357 90.1053 140.83 89.2702 142.643 90.325C144.466 91.3799 145.928 93.9181 145.928 95.9948Z" fill="#6B6CB3"/>
<g clip-path="url(#clip0_78_6)">
<path d="M64.4 0.26C63.69 -0.15 62.71 -0.0900005 61.63 0.529999L12.88 28.68C10.74 29.92 8.99004 32.93 9.00004 35.41L9.09004 67.23C9.09004 68.46 9.53004 69.32 10.23 69.73L13.83 71.81C13.13 71.4 12.7 70.54 12.69 69.31L12.6 37.49C12.59 35.01 14.33 32 16.48 30.76L65.23 2.62C66.31 1.99 67.3 1.93 68 2.35L64.4 0.26Z" fill="#EFF0F2"/>
<path d="M16.4801 30.77C14.3301 32.01 12.5901 35.02 12.6001 37.5L12.6901 69.32C12.7001 71.79 14.4501 72.79 16.6001 71.55L46.8601 54.08L64.1501 63.97L64.1101 44.12L65.3501 43.41C67.5001 42.17 69.2401 39.15 69.2301 36.68L69.1301 4.85C69.1201 2.37 67.3801 1.38 65.2201 2.62L16.4801 30.77Z" fill="#CED3DE"/>
<path d="M47.3601 40.46C47.3601 41.94 48.4101 42.54 49.7001 41.8C50.9901 41.05 52.0401 39.24 52.0401 37.76C52.0401 36.28 50.9901 35.68 49.7001 36.42C48.4101 37.17 47.3601 38.98 47.3601 40.46Z" fill="#4D4D80"/>
<path d="M40.77 44.27C40.77 45.75 41.82 46.35 43.11 45.61C44.4 44.86 45.45 43.05 45.45 41.57C45.45 40.09 44.4 39.49 43.11 40.23C41.82 40.98 40.77 42.79 40.77 44.27Z" fill="#4D4D80"/>
<path d="M34.1702 48.08C34.1702 49.56 35.2202 50.16 36.5102 49.42C37.8002 48.67 38.8502 46.86 38.8502 45.38C38.8502 43.9 37.8002 43.3 36.5102 44.04C35.2202 44.78 34.1702 46.59 34.1702 48.08Z" fill="#4D4D80"/>
<path d="M31.5778 51.4898C32.4977 49.9164 32.5051 48.2093 31.5944 47.6769C30.6838 47.1445 29.1998 47.9884 28.28 49.5618C27.3602 51.1352 27.3527 52.8423 28.2634 53.3747C29.1741 53.9071 30.658 53.0632 31.5778 51.4898Z" fill="#4D4D80"/>
</g>
<defs>
<linearGradient id="paint0_linear_78_6" x1="56.1014" y1="149.618" x2="89.8004" y2="20.7724" gradientUnits="userSpaceOnUse">
<stop offset="0.1714" stop-color="#FFC366"/>
<stop offset="0.5392" stop-color="#FF6096"/>
<stop offset="0.6422" stop-color="#ED4DAC"/>
<stop offset="0.856" stop-color="#BF1BE5"/>
<stop offset="0.9467" stop-color="#AA04FF"/>
</linearGradient>
<clipPath id="clip0_78_6">
<rect width="60.23" height="72.07" fill="white" transform="translate(9)"/>
</clipPath>
</defs>
</svg>
