<svg width="158" height="143" viewBox="0 0 158 143" fill="none" xmlns="http://www.w3.org/2000/svg">
<path d="M156.601 113.491C158.441 122.743 156.762 132.83 150.858 138.134C145.32 143.113 137.148 143.091 129.77 140.632C122.404 138.168 115.495 133.566 108.413 129.793C90.4286 120.23 70.8875 116.005 52.3393 117.687C25.9693 120.073 -3.86324 107.821 1.55785 65.84C4.34778 44.1679 45.8971 26.0161 64.058 21.84C101.307 13.2419 146.403 62.3373 156.601 113.491Z" fill="url(#paint0_linear_78_7)"/>
<g clip-path="url(#clip0_78_7)">
<path d="M36.5276 107.618L75.2623 85.1114L80.5816 114.89L74.9664 129.759L70.6794 128.87L36.5276 107.618Z" fill="#FFEA00"/>
<path d="M40.6426 95.9132V106.763L75.0903 126.705V118.11L72.269 114.387L40.6426 95.9132Z" fill="#EFF0F2"/>
<path d="M40.6426 102.034L57.8664 111.988L40.6426 103.186V102.034Z" fill="#CED3DE"/>
<path d="M74.5054 130.814L133.664 96.6576L133.829 96.5611C134.627 96.0717 135.185 95.2101 135.185 94.1485V84.4221L133.423 85.4423L124.642 90.5226L122.537 91.7358L76.3358 118.447L75.3724 128.684L74.5054 130.814Z" fill="#FFAA00"/>
<path d="M69.145 111.554L76.3291 118.44L122.53 91.729L124.636 90.5157L133.416 85.4354L135.178 84.4152C135.178 82.7125 134.276 81.1409 132.797 80.2792L127.994 77.5081L127.973 77.515L125.874 78.7282L115.071 84.9804L112.965 86.1936L69.145 111.554Z" fill="#FFD60A"/>
<path d="M75.0972 118.11V126.705L73.8654 125.995V123.424C73.8654 122.604 73.9205 121.742 73.7691 120.936C73.6108 120.081 73.136 119.316 72.558 118.702C72.5167 118.661 72.4892 118.62 72.4479 118.592C70.6381 116.745 68.2296 115.6 66.0139 114.332C63.8531 113.098 61.6993 111.864 59.5523 110.63C57.2402 109.3 54.9281 107.976 52.616 106.66C50.4691 105.426 48.3221 104.199 46.1751 102.965C44.5099 102.007 42.8446 101.056 41.1793 100.104C41.0004 100.001 40.8215 99.8975 40.6426 99.801V95.9132L72.269 114.394L75.0972 118.11Z" fill="#CED3DE"/>
<path d="M72.4273 128.381L69.1381 126.478L36.5208 107.611V110.044L69.1381 128.911L72.0833 130.614C72.5168 130.869 72.9847 130.986 73.432 131C74.9321 131.028 76.3153 129.842 76.3153 128.16V118.434C76.3153 116.724 75.4138 115.152 73.9343 114.298L69.1312 111.52V111.547L36.5139 92.6802V95.1136L69.1312 113.98L72.0764 115.683C72.1727 115.738 72.2691 115.787 72.3654 115.828L72.7576 116.055C73.8724 116.696 74.5536 117.882 74.5536 119.164V127.14C74.5674 128.243 73.3838 128.932 72.4273 128.381Z" fill="#FFC400"/>
<path d="M36.5276 92.6871L69.1449 111.554L128 77.5081L95.3832 58.6688L36.5276 92.6871Z" fill="#FFEA00"/>
<path d="M47.4139 106.026C47.2556 106.115 47.118 106.232 46.9804 106.357C46.5675 106.756 46.2578 107.253 45.9826 107.756C45.8931 107.928 45.7899 108.121 45.7211 108.307C45.1844 109.431 44.7921 110.623 44.1659 111.713C43.2507 113.27 41.8194 114.532 40.1679 115.235L40.4569 112.809L36.1768 112.878C37.8351 112.168 39.2458 110.906 40.161 109.355C40.7803 108.287 41.1795 107.094 41.6955 105.97C41.785 105.777 41.8676 105.591 41.9708 105.398C42.246 104.895 42.5557 104.399 42.9686 103.999C43.0924 103.875 43.2301 103.772 43.3677 103.689L47.4139 106.026Z" fill="#E70317"/>
<path d="M44.5305 90.1021L83.2584 67.5956L88.5776 97.3745L82.9625 112.243L78.6823 111.354L44.5305 90.1021Z" fill="#D7DDE8"/>
<path d="M48.6455 78.3973V89.2543L83.0932 109.19V100.594L80.2719 96.8713L48.6455 78.3973Z" fill="#E6E6E6"/>
<path d="M48.6455 87.4413L65.8694 97.3952L48.6455 88.5925V87.4413Z" fill="#B3B3B3"/>
<path d="M82.5083 113.298L141.667 79.1418L141.832 79.0453C142.63 78.5559 143.187 77.6942 143.187 76.6327V66.8993L141.426 67.9195L132.645 72.9999L130.54 74.2131L84.3387 100.925L83.3753 111.161L82.5083 113.298Z" fill="#B3BAC9"/>
<path d="M77.1479 94.0382L84.332 100.925L130.533 74.2131L132.639 72.9999L141.419 67.9195L143.181 66.8993C143.181 65.1967 142.279 63.625 140.8 62.7634L135.997 59.9923L135.976 59.9992L133.877 61.2124L123.081 67.4646L120.975 68.6778L77.1479 94.0382Z" fill="#D7DDE8"/>
<path d="M83.0933 100.594V109.19L81.8615 108.48V105.908C81.8615 105.088 81.9166 104.226 81.7652 103.42C81.6069 102.565 81.1321 101.8 80.5541 101.187C80.5128 101.145 80.4853 101.104 80.444 101.076C78.6342 99.2289 76.2257 98.0846 74.01 96.8162C71.8492 95.5823 69.6954 94.3484 67.5484 93.1145C65.2363 91.7841 62.9242 90.4606 60.6121 89.144C58.4651 87.917 56.3182 86.6831 54.1712 85.4492C52.506 84.491 50.8407 83.5397 49.1754 82.5885C48.9965 82.4851 48.8176 82.3817 48.6387 82.2852V78.3973L80.265 96.8782L83.0933 100.594Z" fill="#F2F2F2"/>
<path d="M80.4302 110.865L77.1478 108.962L44.5306 90.0952V92.5286L77.1478 111.396L80.093 113.098C80.5265 113.353 80.9945 113.47 81.4418 113.484C82.9419 113.512 84.325 112.326 84.325 110.644V100.918C84.325 99.2082 83.4236 97.6365 81.9441 96.7817L77.141 94.0037V94.0313L44.5237 75.1644V77.5977L77.141 96.4646L80.0861 98.1673C80.1825 98.2224 80.2788 98.2707 80.3752 98.312L80.7674 98.5395C81.8822 99.1806 82.5634 100.366 82.5634 101.648V109.624C82.5703 110.727 81.3798 111.416 80.4302 110.865Z" fill="#CED3DE"/>
<path d="M44.5305 75.1713L77.1478 94.0382L136.003 59.9923L103.386 41.1529L44.5305 75.1713Z" fill="#E6E6E6"/>
<path d="M60.0067 94.1623C59.8484 94.2519 59.7108 94.3691 59.5731 94.4932C59.1603 94.893 58.8506 95.3893 58.5754 95.8925C58.4859 96.0648 58.3827 96.2579 58.3139 96.444C57.7771 97.5676 57.3849 98.7601 56.7587 99.8493C55.8435 101.407 54.4122 102.669 52.7607 103.372L53.0497 100.945L48.7695 101.014C50.4279 100.304 51.8386 99.0427 52.7538 97.4917C53.3731 96.4233 53.7722 95.2308 54.2883 94.1072C54.3778 93.9141 54.4604 93.728 54.5636 93.535C54.8388 93.0318 55.1485 92.5355 55.5614 92.1357C55.6852 92.0116 55.8228 91.9082 55.9605 91.8255L60.0067 94.1623Z" fill="#0039A6"/>
<path d="M35 77.8321L73.7347 55.3255L79.054 85.1045L73.4388 99.9733L69.1518 99.0841L35 77.8321Z" fill="#595994"/>
<path d="M39.1218 66.1273V76.9842L73.5695 96.9196V88.3237L70.7413 84.6013L39.1218 66.1273Z" fill="#EFF0F2"/>
<path d="M39.1218 70.4356L56.3457 80.3826L39.1218 71.5868V70.4356Z" fill="#CED3DE"/>
<path d="M72.9778 101.028L132.136 66.8718L132.301 66.7753C133.1 66.2858 133.657 65.4242 133.657 64.3626V54.6293L131.895 55.6495L123.115 60.7298L121.009 61.9431L74.8082 88.6546L73.8448 98.8911L72.9778 101.028Z" fill="#30306B"/>
<path d="M67.6172 81.7682L74.8012 88.6545L121.002 61.9431L123.108 60.7298L131.888 55.6495L133.65 54.6293C133.65 52.9266 132.749 51.355 131.269 50.4933L126.466 47.7222L126.445 47.7291L124.346 48.9423L113.543 55.1945L111.437 56.4078L67.6172 81.7682Z" fill="#595994"/>
<path d="M73.5696 88.3237V96.9196L72.3378 96.2096V93.6384C72.3378 92.8181 72.3929 91.9564 72.2415 91.1499C72.0832 90.2952 71.6084 89.53 71.0304 88.9165C70.9891 88.8751 70.9616 88.8338 70.9203 88.8062C69.1105 86.9588 66.7021 85.8145 64.4863 84.5462C62.3256 83.3123 60.1717 82.0784 58.0248 80.8445C55.7126 79.5141 53.4005 78.1905 51.0884 76.8739C48.9415 75.64 46.7945 74.413 44.6475 73.1791C42.9823 72.221 41.317 71.2697 39.6517 70.3184C39.4728 70.215 39.287 70.1116 39.115 70.0151V66.1273L70.7414 84.6082L73.5696 88.3237Z" fill="#CED3DE"/>
<path d="M70.9065 98.5947L67.6173 96.6921L35 77.8321V80.2654L67.6173 99.1323L70.5625 100.835C70.996 101.09 71.4639 101.207 71.9112 101.221C73.4113 101.249 74.7945 100.063 74.7945 98.381V88.6545C74.7945 86.945 73.893 85.3733 72.4135 84.5186L67.6104 81.7406V81.7682L35 62.9012V65.3346L67.6173 84.2015L70.5625 85.9041C70.6588 85.9593 70.7551 86.0075 70.8515 86.0489L71.2437 86.2764C72.3585 86.9174 73.0397 88.1031 73.0397 89.3852V97.3608C73.0397 98.4568 71.8562 99.1461 70.9065 98.5947Z" fill="#4D4D80"/>
<path d="M35 62.9012L67.6173 81.7682L126.48 47.7222L93.8556 28.8829L35 62.9012Z" fill="#6B6CB3"/>
<path d="M56.8275 80.7135C56.6692 80.8031 56.5316 80.9203 56.3939 81.0444C55.9811 81.4442 55.6714 81.9405 55.3962 82.4437C55.3067 82.616 55.2035 82.809 55.1347 82.9952C54.5979 84.1188 54.2057 85.3113 53.5795 86.4004C52.6643 87.9583 51.233 89.2198 49.5815 89.9229L49.8705 87.4965L45.5903 87.5654C47.2487 86.8554 48.6594 85.5939 49.5746 84.0429C50.1939 82.9745 50.593 81.7819 51.1091 80.6583C51.1986 80.4653 51.2812 80.2792 51.3844 80.0862C51.6596 79.583 51.9693 79.0867 52.3822 78.6869C52.506 78.5628 52.6436 78.4594 52.7813 78.3767L56.8275 80.7135Z" fill="#FA8406"/>
<path d="M51.3362 48.9492L90.0709 26.4426L95.3902 56.2216L89.775 71.0905L85.4949 70.2012L51.3362 48.9492Z" fill="#FF5740"/>
<path d="M55.458 37.2444V48.1013L89.9057 68.0367V59.4408L87.0775 55.7253L55.458 37.2444Z" fill="#EFF0F2"/>
<path d="M55.458 43.9654L86.6853 62.012L55.458 45.1234V43.9654Z" fill="#CED3DE"/>
<path d="M89.3208 72.1451L148.479 37.9889L148.644 37.8924C149.443 37.403 150 36.5413 150 35.4797V25.7464L148.238 26.7666L139.458 31.847L137.352 33.0602L91.1443 59.7717L90.181 70.0082L89.3208 72.1451Z" fill="#DE2910"/>
<path d="M83.9604 52.8853L91.1445 59.7717L137.345 33.0602L139.451 31.847L148.232 26.7666L149.993 25.7464C149.993 24.0438 149.092 22.4721 147.612 21.6105L142.809 18.8393L142.789 18.8462L140.69 20.0595L129.886 26.3117L127.78 27.5249L83.9604 52.8853Z" fill="#FF4126"/>
<path d="M89.9058 59.4408V68.0367L88.674 67.3267V64.7555C88.674 63.9352 88.7291 63.0736 88.5777 62.267C88.4194 61.4123 87.9446 60.6471 87.3666 60.0336C87.3253 59.9923 87.2978 59.9509 87.2565 59.9233C85.4467 58.0759 83.0382 56.9316 80.8225 55.6633C78.6617 54.4294 76.5079 53.1955 74.3609 51.9616C72.0488 50.6312 69.7367 49.3077 67.4246 47.9911C65.2776 46.764 63.1307 45.5302 60.9837 44.2963C59.3185 43.3381 57.6532 42.3868 55.9879 41.4355C55.809 41.3321 55.6301 41.2287 55.4512 41.1322V37.2444L87.0775 55.7253L89.9058 59.4408Z" fill="#CED3DE"/>
<path d="M87.2428 69.7187L83.9535 67.8161L51.3362 48.9492V51.3826L83.9535 70.2495L86.8987 71.9521C87.3322 72.2072 87.8002 72.3244 88.2474 72.3381C89.7476 72.3657 91.1307 71.1801 91.1307 69.4981V59.7717C91.1307 58.0621 90.2292 56.4905 88.7498 55.6357L83.9466 52.8577V52.8853L51.3293 34.0184V36.4517L83.9466 55.3186L86.8918 57.0213C86.9882 57.0764 87.0845 57.1247 87.1808 57.166L87.5731 57.3935C88.6878 58.0346 89.3691 59.2202 89.3691 60.5024V68.4779C89.3828 69.5739 88.1924 70.2633 87.2428 69.7187Z" fill="#ED341A"/>
<path d="M51.3362 34.0253L83.9535 52.8853L142.816 18.8393L110.199 0L51.3362 34.0253Z" fill="#FF5740"/>
<path d="M86.0111 61.6122C85.8528 61.7018 85.7152 61.819 85.5775 61.9431C85.1647 62.3429 84.855 62.8392 84.5798 63.3424C84.4903 63.5147 84.3871 63.7077 84.3183 63.8939C83.7815 65.0175 83.3893 66.21 82.7631 67.2992C81.8479 68.857 80.4166 70.1185 78.7651 70.8216L79.0541 68.3952L74.7739 68.4641C76.4323 67.7541 77.843 66.4926 78.7582 64.9416C79.3775 63.8732 79.7766 62.6806 80.2927 61.557C80.3822 61.364 80.4647 61.1779 80.568 60.9849C80.8432 60.4817 81.1529 59.9854 81.5658 59.5856C81.6896 59.4615 81.8272 59.3581 81.9649 59.2754L86.0111 61.6122Z" fill="#B3B3B3"/>
</g>
<defs>
<linearGradient id="paint0_linear_78_7" x1="33.3019" y1="155.659" x2="131.074" y2="66.0998" gradientUnits="userSpaceOnUse">
<stop stop-color="#FB4A4F"/>
<stop offset="0.5348" stop-color="#FF9F00"/>
<stop offset="0.8881" stop-color="#FFD586"/>
</linearGradient>
<clipPath id="clip0_78_7">
<rect width="115" height="131" fill="white" transform="translate(35)"/>
</clipPath>
</defs>
</svg>
