<svg width="221" height="55" viewBox="0 0 221 55" fill="none" xmlns="http://www.w3.org/2000/svg">
<mask id="mask0_42_667" style="mask-type:alpha" maskUnits="userSpaceOnUse" x="0" y="0" width="181" height="55">
<rect width="181" height="55" fill="white"/>
</mask>
<g mask="url(#mask0_42_667)">
<path d="M247.701 38.1269C260.629 35.2757 273.305 32.0077 283.108 27.9712C292.911 23.9401 299.599 19.0316 298.624 14.8001C297.592 10.2888 288.088 7.11483 276.218 5.50017C264.371 3.8847 250.269 3.6067 236.404 3.34184C205.589 2.75816 174.75 2.17529 143.935 1.59161C120.527 1.14805 96.5025 0.730876 71.507 3.12811C46.5117 5.53066 19.9259 11.375 7.52984 19.3609C-3.07912 26.1849 -1.50422 33.3844 6.48613 38.7851C41.8697 62.6372 168.535 55.5866 247.701 38.1269Z" fill="#F7F8FC"/>
</g>
</svg>
