<svg width="15" height="14" viewBox="0 0 15 14" fill="none" xmlns="http://www.w3.org/2000/svg">
<path d="M11.4998 5.67024C10.735 4.79319 9.96938 3.91613 9.20465 3.03697C8.93807 2.731 8.67149 2.42397 8.41029 2.11171C7.90675 1.51129 7.86726 0.86371 8.2981 0.355498C8.72803 -0.151667 9.29351 -0.118135 9.79884 0.468666C11.1775 2.07084 12.5499 3.68141 13.9268 5.28568C14.1593 5.55708 14.4025 5.8159 14.6431 6.07786C15.1107 6.58607 15.117 7.37302 14.6691 7.88961C13.0831 9.71918 11.5024 11.554 9.91822 13.3846C9.79076 13.5313 9.66511 13.6853 9.5188 13.8037C9.12028 14.1265 8.59789 14.0322 8.26309 13.5952C7.91932 13.1457 7.89778 12.5411 8.26488 12.0727C8.72893 11.4806 9.22709 10.9232 9.71627 10.3584C10.3078 9.67517 10.9047 8.99825 11.4998 8.31924C11.4818 8.26999 11.463 8.22074 11.445 8.17149C11.2754 8.17149 11.1057 8.17149 10.9352 8.17149C6.74618 8.17149 5.55719 8.17149 1.36731 8.17149C0.443699 8.17149 0.0137594 7.80683 0.000295717 7.01779C-0.0131679 6.21094 0.432928 5.82219 1.37538 5.82219C5.55001 5.82219 6.72375 5.82219 10.8984 5.82219C11.0761 5.82219 11.2538 5.82219 11.4315 5.82219C11.4549 5.77084 11.4773 5.72054 11.4998 5.67024Z" fill="#7E57C2"/>
</svg>
