<svg width="13" height="10" viewBox="0 0 13 10" fill="none" xmlns="http://www.w3.org/2000/svg">
<path d="M4.49717 7.07322C5.67242 5.84665 6.76546 4.70254 7.86099 3.56165C8.88427 2.49614 9.90818 1.43062 10.9383 0.372192C11.4216 -0.12449 12.1771 -0.120625 12.6461 0.363173C13.1076 0.839241 13.1256 1.60391 12.6523 2.10446C11.7094 3.10169 10.7496 4.08153 9.79607 5.06845C8.43958 6.47217 7.08185 7.8759 5.72536 9.27962C5.71041 9.29508 5.69671 9.31054 5.68301 9.32665C4.8447 10.3252 4.06307 10.1119 3.36676 9.34211C2.42445 8.29978 1.42047 7.31737 0.447634 6.30404C-0.00826569 5.82926 -0.109784 5.34675 0.115052 4.81399C0.44452 4.03257 1.45659 3.83351 2.04079 4.43648C2.76762 5.1857 3.49506 5.93491 4.21815 6.68863C4.3122 6.78655 4.3807 6.91088 4.49717 7.07322Z" fill="#26D68D"/>
</svg>
