<svg width="6" height="10" viewBox="0 0 6 10" fill="none" xmlns="http://www.w3.org/2000/svg">
<path d="M1.22991 6.5073C1.2379 6.5068 1.24542 6.50681 1.25341 6.50681C1.4409 6.5122 1.67116 6.45144 1.80368 6.54355C1.92538 6.62782 1.94794 6.87525 2.0048 7.0536C2.11335 7.39558 2.34596 7.60039 2.66972 7.68123C2.84218 7.72434 3.02827 7.73806 3.20495 7.72434C3.64385 7.69054 3.8962 7.48574 3.99676 7.11778C4.11517 6.68319 4.00193 6.23782 3.66171 6.00313C3.41642 5.8341 3.134 5.72288 2.86709 5.58863C2.44511 5.37648 2.00621 5.19568 1.60396 4.94973C0.939037 4.54257 0.713479 3.88113 0.754832 3.11141C0.808872 2.11534 1.34974 1.45194 2.32293 1.20941C2.56775 1.14865 2.64341 1.04429 2.61568 0.798826C2.59642 0.629791 2.61381 0.456347 2.6124 0.284862C2.61099 0.0927999 2.69792 -0.00225145 2.88447 0.000688286C3.06445 0.00362802 3.2449 0.00509788 3.42487 0.000198331C3.64103 -0.00519118 3.74441 0.0991693 3.74065 0.324549C3.73737 0.52886 3.7477 0.733662 3.73502 0.936993C3.72421 1.10358 3.77543 1.17658 3.93896 1.22264C4.71243 1.44067 5.24296 1.94042 5.40837 2.7709C5.54465 3.45732 5.54465 3.46271 4.89664 3.45683C4.71619 3.45536 4.53575 3.44899 4.35577 3.45781C4.14807 3.4681 4.03247 3.38579 4.01038 3.15992C3.99958 3.04772 3.96997 2.93356 3.92721 2.82969C3.78718 2.49113 3.53483 2.30838 3.18005 2.29221C2.82856 2.27653 2.50573 2.32847 2.31588 2.69789C2.07717 3.16286 2.19229 3.73954 2.62085 4.01636C2.89152 4.19079 3.19603 4.30691 3.48408 4.4534C3.87693 4.65281 4.28857 4.82234 4.65557 5.06536C5.37313 5.53963 5.57284 6.28143 5.47792 7.11288C5.38065 7.96344 4.88536 8.48917 4.11705 8.7508C3.74112 8.87868 3.73784 8.8777 3.74159 9.28779C3.74864 10.0654 3.74394 9.99921 3.0668 9.99823C2.62226 9.99725 2.6124 9.98549 2.61099 9.51121C2.61052 9.31621 2.66362 9.07564 2.57433 8.94041C2.49727 8.82429 2.25197 8.83115 2.08233 8.77873C1.23414 8.51464 0.650041 7.99137 0.519406 7.03106C0.506248 6.93454 0.502959 6.83606 0.500139 6.73855C0.49638 6.58863 0.568746 6.50975 0.71301 6.50828C0.885467 6.50632 1.05746 6.50778 1.22991 6.5073Z" fill="white"/>
</svg>
