<svg width="36" height="36" viewBox="0 0 36 36" fill="none" xmlns="http://www.w3.org/2000/svg">
<path d="M17.9975 21.5787C13.7303 25.8563 9.6425 29.9545 5.55108 34.0563C5.16282 34.4445 4.79287 34.8547 4.37896 35.2136C3.19952 36.2354 1.74536 36.2501 0.756391 35.2686C-0.236245 34.2871 -0.276536 32.7928 0.782031 31.6538C2.0677 30.2694 3.44127 28.9656 4.77822 27.6252C7.92462 24.4793 11.0747 21.3333 14.3676 18.0445C13.8658 17.5134 13.4336 17.0373 12.983 16.5832C9.10406 12.6974 5.21776 8.81534 1.33879 4.92591C-0.188628 3.39504 -0.401074 1.94475 0.701448 0.783777C1.85159 -0.432127 3.36801 -0.230697 4.97601 1.36975C8.86597 5.2482 12.7449 9.13396 16.6276 13.0161C17.0525 13.4409 17.4993 13.8474 18.0414 14.3675C22.0706 10.3316 26.0338 6.36522 29.9934 2.39522C30.4659 1.91911 30.9274 1.43201 31.4219 0.97422C32.7405 -0.252671 34.2679 -0.318594 35.3082 0.791102C36.2972 1.84586 36.2349 3.32179 35.0371 4.54136C32.1728 7.4566 29.2791 10.3462 26.3708 13.2212C24.8104 14.7593 23.1951 16.2426 21.3087 18.0298C23.0889 19.6925 24.6749 21.1062 26.1877 22.5968C29.1033 25.4644 31.986 28.3614 34.8613 31.2693C36.2459 32.6683 36.3631 34.1882 35.2386 35.2832C34.1214 36.3709 32.6343 36.2244 31.2241 34.8181C26.858 30.4672 22.5175 26.1017 17.9975 21.5787Z" fill="#7E57C2"/>
</svg>
