<svg width="54" height="54" viewBox="0 0 54 54" fill="none" xmlns="http://www.w3.org/2000/svg">
<path d="M54 11.3631C53.901 14.488 53.4777 17.2598 51.4729 19.5377C49.8766 21.3534 47.8696 22.3684 45.4899 22.7488C42.9943 23.1459 40.522 23.0892 38.0791 22.4567C34.0293 21.408 31.3464 17.9385 31.0452 13.1514C30.9357 11.4219 31.022 9.63361 31.3379 7.93354C32.1277 3.69912 35.1139 1.02188 39.7049 0.240137C42.0488 -0.159138 44.3948 -0.0624718 46.7008 0.544847C50.7232 1.60188 53.2398 4.65948 53.8336 9.19861C53.9347 9.99506 53.9579 10.802 54 11.3631ZM42.4952 4.16985C41.4907 4.31274 40.4756 4.3968 39.4858 4.60695C37.3525 5.06086 35.9752 6.4268 35.5477 8.50934C35.2508 9.96354 35.1708 11.5081 35.2866 12.9896C35.5288 16.0598 37.0429 17.9427 39.4985 18.4513C40.4525 18.6488 41.4444 18.7455 42.4194 18.7539C47.5769 18.7896 49.7376 16.6314 49.7376 11.506C49.7355 6.43311 47.5769 4.26861 42.4952 4.16985Z" fill="#7E57C2"/>
<path d="M54 42.3042C53.903 44.9001 53.6522 47.2623 52.3136 49.3571C51.034 51.3614 49.2675 52.7298 46.9698 53.372C44.1007 54.1741 41.2043 54.2057 38.3227 53.4793C34.0349 52.3993 31.3156 49.056 31.0416 44.1611C30.9214 42.0263 31.0437 39.7568 31.6487 37.7251C32.9599 33.3355 36.3727 31.3481 40.7764 31.0512C42.5429 30.9312 44.379 31.0175 46.1139 31.3586C50.507 32.2197 53.18 35.3482 53.8208 40.0852C53.9283 40.8831 53.9536 41.6916 54 42.3042ZM42.4312 35.1187C42.427 35.1608 42.4249 35.2029 42.4206 35.245C41.9653 35.245 41.5037 35.2071 41.0525 35.2514C37.9812 35.5566 36.0038 36.9525 35.5316 39.4199C35.2471 40.9168 35.1311 42.5 35.2766 44.0116C35.6286 47.6981 37.4036 49.3929 41.1137 49.6413C42.5661 49.7381 44.0691 49.6245 45.5005 49.3487C47.579 48.9508 48.8712 47.5654 49.375 45.5085C49.8683 43.5 49.8641 41.4789 49.3855 39.4641C48.8712 37.2998 47.4715 35.9966 45.3445 35.4998C44.3959 35.2787 43.403 35.2408 42.4312 35.1187Z" fill="#B1E0E4"/>
<path d="M11.4696 23C8.06556 22.8973 4.92614 22.2223 2.55109 19.5203C1.25962 18.055 0.547741 16.3403 0.266347 14.4348C-0.212441 11.2003 -0.168342 8.0015 1.43392 5.04373C3.01728 2.1153 5.63592 0.66052 8.86774 0.201447C11.1441 -0.121372 13.4162 -0.0836397 15.6401 0.515881C19.483 1.55351 21.8076 4.09623 22.6287 7.95329C23.1663 10.475 23.1159 13.0178 22.5048 15.5353C21.5934 19.2918 18.5401 22.0902 14.6972 22.6499C13.6262 22.805 12.5448 22.8868 11.4696 23ZM18.832 11.519C18.79 11.5148 18.7459 11.5106 18.7039 11.5064C18.7039 11.0536 18.7396 10.5966 18.6976 10.1459C18.3469 6.40628 16.5809 4.58466 12.8345 4.33311C11.3877 4.23459 9.89042 4.35197 8.46455 4.62239C6.3919 5.01648 5.10463 6.3937 4.60064 8.44171C4.10716 10.4415 4.11346 12.4539 4.58805 14.46C5.09833 16.617 6.4822 17.9733 8.61155 18.3946C9.96602 18.6629 11.3961 18.7279 12.78 18.6461C15.8774 18.4638 17.8429 16.9859 18.412 14.5166C18.6367 13.5355 18.6955 12.5189 18.832 11.519Z" fill="#7E57C2"/>
<path d="M23 42.5729C22.8889 45.9762 22.2016 49.111 19.4837 51.4673C18.0693 52.6948 16.4243 53.3705 14.597 53.6936C11.9357 54.1636 9.27865 54.1405 6.72423 53.2886C2.8706 52.0024 0.800239 49.1593 0.213498 45.1852C-0.128069 42.8771 -0.0861586 40.5732 0.532015 38.3197C1.57348 34.5261 4.0818 32.2243 7.89561 31.3955C10.4165 30.8478 12.9646 30.8562 15.473 31.5004C19.4607 32.5243 21.8056 35.1472 22.6144 39.1443C22.8407 40.2669 22.8764 41.4293 23 42.5729ZM4.18029 42.4721C4.27458 43.3031 4.32907 44.1424 4.47156 44.967C4.91162 47.5373 6.42247 49.1824 9.00623 49.4719C10.7811 49.6712 12.6294 49.6167 14.4001 49.3691C16.5878 49.0628 17.9519 47.5604 18.3773 45.4349C18.6623 44.0165 18.7357 42.5099 18.6267 41.0642C18.392 37.9588 16.856 36.0452 14.3665 35.5584C13.4131 35.3717 12.4282 35.2751 11.458 35.271C6.39314 35.2458 4.24944 37.4028 4.18029 42.4721Z" fill="#7E57C2"/>
</svg>
