<svg width="28" height="26" viewBox="0 0 28 26" fill="none" xmlns="http://www.w3.org/2000/svg">
<path d="M4.42666 3.83193C4.46678 3.98389 4.51995 4.23656 4.59924 4.4819C5.26901 6.56456 4.08152 8.66735 1.90709 9.11684C0.83993 9.33746 0.295156 9.89863 0.146835 10.9432C-0.0621185 12.4079 -0.0621204 13.8616 0.238253 15.3108C0.420155 16.186 1.02556 16.5961 1.89403 16.7471C3.42947 17.0144 4.56659 18.069 4.81099 19.5704C4.90987 20.1773 4.82498 20.8511 4.66267 21.4526C4.37443 22.5182 4.46491 23.1443 5.39961 23.7668C6.43505 24.4571 7.5218 25.086 8.6328 25.6527C9.5563 26.1241 10.2755 25.9053 10.9434 25.1208C12.532 23.256 15.2018 23.3054 16.7372 25.2279C17.338 25.9804 18.0096 26.1745 18.9163 25.8467C20.2988 25.3469 21.5562 24.6292 22.6999 23.7211C23.4816 23.0995 23.6514 22.4477 23.296 21.5322C22.3902 19.1978 23.7297 16.9412 26.2428 16.5695C27.1225 16.4395 27.6607 15.969 27.8109 15.1176C28.0907 13.5385 28.0618 11.9566 27.712 10.3911C27.5366 9.60935 26.9919 9.17451 26.1822 9.05825C24.559 8.82481 23.49 7.94506 23.0367 6.39337C22.8305 5.68755 22.8911 4.97716 23.1402 4.27959C23.4807 3.3266 23.2764 2.68121 22.4658 2.07334C21.3846 1.26317 20.2139 0.610451 18.935 0.150894C18.0796 -0.156698 17.4294 0.00442149 16.8361 0.658055C15.1943 2.46516 12.7876 2.4679 11.1533 0.665378C10.5554 0.00625243 9.90705 -0.157614 9.05817 0.149063C7.60016 0.674533 6.28486 1.44077 5.09177 2.41572C4.6692 2.7581 4.46025 3.19569 4.42666 3.83193ZM13.9546 8.42018C16.5311 8.41377 18.6384 10.4507 18.6495 12.959C18.6617 15.482 16.5777 17.5564 14.0236 17.5665C11.4332 17.5765 9.33056 15.5223 9.32869 12.98C9.32869 10.4909 11.4229 8.42659 13.9546 8.42018Z" fill="#D7D9E5"/>
</svg>
