<svg width="18" height="18" viewBox="0 0 18 18" fill="none" xmlns="http://www.w3.org/2000/svg">
<g clip-path="url(#clip0_10_562)">
<path d="M16.221 17.6946H1.70832C0.786601 17.6946 0.046875 16.9488 0.046875 16.0326V11.6868H17.8884V16.0267C17.8884 16.9488 17.1428 17.6946 16.221 17.6946Z" fill="#D8DAE6"/>
<path d="M2.40697 3.99348C2.40697 3.05971 2.40697 2.16705 2.40697 1.27439C2.4011 0.516803 2.90012 0 3.65159 0C6.14082 0 8.62419 0 11.1134 0C11.2778 0 11.407 0.0411093 11.5303 0.164437C12.8101 1.4447 14.0841 2.72496 15.3698 3.99935C15.5342 4.16378 15.6046 4.3341 15.5987 4.56313C15.587 5.22675 15.5929 5.89038 15.5929 6.554C15.5929 6.62447 15.5929 6.69494 15.5929 6.78303C15.6692 6.78891 15.7279 6.79478 15.7925 6.79478C16.1213 6.79478 16.45 6.79478 16.7788 6.80065C17.4774 6.80653 17.9882 7.30571 17.9882 8.00457C17.9941 10.5827 17.9882 13.1608 17.9882 15.739C17.9882 16.0502 17.9706 16.3615 17.9941 16.6669C18.0469 17.4362 17.4246 18.0117 16.679 18C14.7299 17.9765 12.7749 17.9941 10.8258 17.9941C7.64963 17.9941 4.4735 17.9824 1.29738 18C0.557653 18.0059 -7.72765e-05 17.4186 0.00579356 16.7256C0.0234061 12.9083 0.0234061 9.0969 0.00579356 5.27961C-0.00594812 4.55139 0.563523 3.95824 1.30325 3.99348C1.66137 4.01109 2.02536 3.99348 2.40697 3.99348ZM8.99992 17.1837C10.9901 17.1837 12.9804 17.1837 14.9706 17.1837C15.5694 17.1837 16.1682 17.1837 16.767 17.1778C17.0371 17.1778 17.178 17.0251 17.1721 16.755C17.1663 16.6493 17.1721 16.5494 17.1721 16.4437C17.1721 13.6894 17.1721 10.9409 17.1721 8.18662C17.1721 7.71093 17.0547 7.59348 16.5792 7.59348C14.2132 7.59348 11.8532 7.59935 9.4872 7.5876C9.34043 7.5876 9.17018 7.523 9.05276 7.43491C7.98427 6.62447 6.92752 5.79641 5.87076 4.96248C5.72399 4.8509 5.57722 4.79804 5.39523 4.79804C4.06254 4.80392 2.72986 4.79804 1.39718 4.79804C0.927516 4.79804 0.81597 4.90963 0.81597 5.37357C0.81597 8.36868 0.81597 11.3638 0.81597 14.3648C0.81597 15.1458 0.81597 15.9269 0.81597 16.7021C0.81597 17.0427 0.950999 17.1778 1.29738 17.1837C1.3737 17.1837 1.45002 17.1837 1.53221 17.1837C4.01558 17.1837 6.51069 17.1837 8.99992 17.1837ZM10.7964 0.822186C10.7318 0.816313 10.6966 0.810441 10.6555 0.810441C8.3189 0.810441 5.97644 0.810441 3.63984 0.810441C3.3463 0.810441 3.2054 0.95726 3.2054 1.2509C3.2054 1.97325 3.2054 2.6956 3.2054 3.41794C3.2054 3.60587 3.2054 3.78793 3.2054 3.98173C3.29346 3.9876 3.35804 3.99348 3.41675 3.99348C4.06254 3.99348 4.70247 4.00522 5.34826 3.9876C5.74161 3.97586 6.07037 4.09918 6.38153 4.33997C7.39131 5.13279 8.40697 5.91387 9.42262 6.68907C9.50481 6.7478 9.61636 6.78891 9.71616 6.78891C10.0449 6.80065 10.3737 6.79478 10.7025 6.79478C11.9882 6.79478 13.2798 6.78891 14.5655 6.80065C14.7475 6.80065 14.7886 6.74193 14.7886 6.56574C14.7768 6.04307 14.7886 5.52039 14.7886 4.99772C14.7886 4.93312 14.7827 4.87439 14.7768 4.79217C14.7005 4.79217 14.6359 4.79217 14.5772 4.79217C13.7318 4.79217 12.8923 4.79217 12.0469 4.79217C11.3072 4.79217 10.7964 4.26949 10.7964 3.5354C10.7964 2.99511 10.7964 2.45481 10.7964 1.91452C10.7964 1.56215 10.7964 1.19804 10.7964 0.822186ZM11.6124 1.42708C11.6124 1.45057 11.6007 1.47993 11.6007 1.5093C11.6007 2.19641 11.6007 2.8894 11.6007 3.57651C11.6007 3.83491 11.7592 3.9876 12.0351 3.9876C12.7103 3.99347 13.3854 3.9876 14.0665 3.9876C14.1017 3.9876 14.1369 3.98173 14.178 3.97586C13.315 3.12431 12.4696 2.2845 11.6124 1.42708Z" fill="#010202"/>
</g>
<defs>
<clipPath id="clip0_10_562">
<rect width="18" height="18" fill="white"/>
</clipPath>
</defs>
</svg>
