<svg width="18" height="22" viewBox="0 0 18 22" fill="none" xmlns="http://www.w3.org/2000/svg">
<g clip-path="url(#clip0_10_567)">
<path d="M7.61102 20.1434C7.1431 20.5659 6.69295 20.9705 6.24873 21.3752C6.1125 21.5001 5.98219 21.6251 5.84004 21.7441C5.43135 22.0893 5.11743 22.0893 4.71467 21.7441C4.20529 21.2978 3.69591 20.8634 3.21023 20.3933C2.97923 20.1731 2.83708 20.1969 2.62385 20.4052C2.26847 20.7563 1.87163 21.0717 1.51033 21.4228C1.22602 21.7025 0.906182 21.8512 0.521187 21.6906C0.106577 21.518 -3.73325e-05 21.1669 -3.73325e-05 20.7384C0.00588567 17.9118 0.00588567 15.0793 0.00588567 12.2526C0.00588567 9.90803 0.0414237 7.55748 -0.00596033 5.21288C-0.0296523 3.80254 1.03649 2.72545 2.38693 2.79686C3.03846 2.83257 3.03846 2.80281 3.04438 2.15418C3.05031 0.880714 3.92691 0.00595077 5.20036 0C8.82523 0 12.4501 0 16.075 0C17.2063 0 17.9881 0.7736 17.9881 1.91615C17.994 5.49851 17.9881 9.08088 17.9881 12.6692C17.9881 14.4009 17.9822 16.1266 17.9881 17.8583C17.9881 18.2153 17.923 18.5307 17.5676 18.6854C17.2122 18.8401 16.9338 18.6676 16.6732 18.4295C16.2882 18.0725 15.9032 17.7154 15.5064 17.3763C15.4116 17.2989 15.2043 17.1977 15.1806 17.2215C15.0799 17.3346 14.9674 17.4953 14.9674 17.6381C14.9496 18.6795 14.9555 19.7209 14.9555 20.7622C14.9555 20.8753 14.9911 21.0122 14.9378 21.1014C14.8134 21.3157 14.689 21.5775 14.4935 21.7025C14.2625 21.8512 13.996 21.7322 13.7828 21.5299C13.3741 21.1371 12.9358 20.7622 12.533 20.3576C12.3376 20.1612 12.2132 20.191 12.0296 20.3635C11.532 20.8337 11.0167 21.2859 10.5014 21.7382C10.0987 22.0952 9.75514 22.0893 9.35238 21.7263C8.78377 21.2026 8.20924 20.6789 7.61102 20.1434ZM13.7828 20.3754C13.8361 20.3457 13.8894 20.31 13.9427 20.2802C13.9427 20.1612 13.9427 20.0362 13.9427 19.9172C13.9427 14.9959 13.9427 10.0687 13.9427 5.14742C13.9427 5.04625 13.9427 4.93914 13.9368 4.83798C13.8835 4.15959 13.534 3.82635 12.8588 3.82635C9.3583 3.82635 5.85781 3.82635 2.36324 3.82635C1.48664 3.82635 1.03649 4.2786 1.03649 5.15932C1.03649 10.0925 1.03649 15.0257 1.03649 19.9648C1.03649 20.0779 1.04833 20.1969 1.06018 20.3814C1.48071 20.0065 1.83609 19.6911 2.19147 19.3757C2.72454 18.9056 3.09177 18.9116 3.62484 19.3876C4.16975 19.8756 4.71467 20.3576 5.27736 20.8634C5.81635 20.3754 6.3435 19.9053 6.86472 19.4293C7.45702 18.8937 7.77686 18.8996 8.36324 19.4412C8.87262 19.9113 9.38792 20.3814 9.91507 20.8634C10.4955 20.3457 11.0464 19.8518 11.5972 19.3579C12.1066 18.9056 12.4205 18.8996 12.8884 19.3817C13.2083 19.6971 13.4866 20.0422 13.7828 20.3754ZM16.9516 17.3643C16.9634 17.1739 16.9694 17.0728 16.9694 16.9716C16.9694 11.9789 16.9694 6.98621 16.9694 1.99351C16.9694 1.32107 16.6791 1.02948 16.0158 1.02948C12.456 1.02948 8.90223 1.02948 5.34251 1.02948C5.22997 1.02948 5.11151 1.02353 4.99897 1.04138C4.29414 1.1247 3.95653 1.60671 4.08683 2.54693C4.15791 3.10035 4.67321 2.66595 4.95159 2.79686C4.96936 2.80876 4.99898 2.79686 5.01674 2.79686C7.67025 2.79686 10.3297 2.80281 12.9832 2.79686C13.6939 2.79686 14.2329 3.0944 14.612 3.68948C14.8904 4.11793 14.9615 4.59995 14.9615 5.09981C14.9615 8.59291 14.9615 12.086 14.9615 15.5791C14.9615 15.7219 14.9615 15.8648 14.9615 16.073C15.4294 15.9183 15.6722 16.1801 15.9328 16.4301C16.2468 16.7336 16.5725 17.0133 16.9516 17.3643Z" fill="#010202"/>
<path d="M7.61101 15.1804C6.64556 15.1804 5.67419 15.1804 4.70874 15.1804C4.56067 15.1804 4.37705 15.1923 4.28229 15.1149C4.14013 14.9959 3.96837 14.7876 3.98614 14.6389C4.00983 14.4723 4.20529 14.3056 4.35929 14.1807C4.43036 14.1212 4.57844 14.1569 4.69097 14.1569C6.63964 14.1569 8.58239 14.1569 10.5311 14.1569C10.6317 14.1569 10.7384 14.1509 10.839 14.1688C11.0937 14.2164 11.2774 14.3889 11.2418 14.6389C11.2122 14.8174 11.0582 15.0019 10.9101 15.1268C10.8272 15.1982 10.6495 15.1804 10.5133 15.1804C9.54191 15.1804 8.57646 15.1804 7.61101 15.1804Z" fill="#010202"/>
<path d="M7.59327 11.8658C6.60412 11.8658 5.61498 11.8658 4.62584 11.8658C4.20531 11.8658 3.95654 11.6694 3.95654 11.3481C3.96247 11.0267 4.20531 10.8423 4.63177 10.8363C6.62189 10.8363 8.61202 10.8363 10.6081 10.8363C10.9101 10.8363 11.153 10.9137 11.2359 11.235C11.3248 11.5742 11.0701 11.8539 10.6614 11.8598C9.64262 11.8658 8.61794 11.8658 7.59327 11.8658Z" fill="#010202"/>
<path d="M6.0652 8.55721C5.54397 8.55721 5.01683 8.56316 4.4956 8.55721C4.24684 8.55126 4.02176 8.43224 3.99215 8.18231C3.96846 8.01569 4.0573 7.81336 4.15799 7.67054C4.21722 7.58723 4.40084 7.55153 4.52522 7.55153C5.57359 7.53963 6.62196 7.53963 7.66441 7.55153C7.99017 7.55153 8.20933 7.75386 8.22117 8.03354C8.23302 8.31918 8.00794 8.55126 7.67033 8.56316C7.13726 8.56911 6.60419 8.55721 6.0652 8.55721Z" fill="#010202"/>
<path d="M16.9516 17.3644C16.9634 17.174 16.9693 17.0728 16.9693 16.9716C16.9693 11.9789 16.9693 6.98624 16.9693 1.99354C16.9693 1.3211 16.6791 1.02952 16.0157 1.02952C12.456 1.02952 8.90222 1.02952 5.3425 1.02952C5.22996 1.02952 5.1115 1.02357 4.99896 1.04142C4.29412 1.12473 3.95651 1.60674 4.08682 2.54696C4.1579 3.10038 4.6732 2.66598 4.95158 2.7969C4.96935 2.8088 4.99896 2.7969 5.01673 2.7969C7.67024 2.7969 10.3297 2.80285 12.9832 2.7969C13.6939 2.7969 14.2329 3.09443 14.612 3.68951C14.8904 4.11797 14.9614 4.59998 14.9614 5.09984C14.9614 8.59294 14.9614 12.086 14.9614 15.5791C14.9614 15.722 14.9614 15.8648 14.9614 16.0731C15.4294 15.9183 15.6722 16.1802 15.9328 16.4301C16.2467 16.7336 16.5725 17.0133 16.9516 17.3644Z" fill="#D8DAE6"/>
</g>
<defs>
<clipPath id="clip0_10_567">
<rect width="18" height="22" fill="white"/>
</clipPath>
</defs>
</svg>
