<svg width="39" height="39" viewBox="0 0 39 39" fill="none" xmlns="http://www.w3.org/2000/svg">
<rect x="1" y="1" width="38" height="38" rx="5" fill="#D4DDE9"/>
<rect width="38" height="38" rx="5" fill="#E8ECF3"/>
<path d="M15.1463 19.6645C12.7235 19.6645 10.3007 19.6658 7.87657 19.6632C7.66287 19.6632 7.3951 19.7146 7.24834 19.6093C7.01532 19.4424 6.73468 19.1727 6.71408 18.9275C6.69863 18.7221 6.99473 18.4486 7.21229 18.2829C7.34103 18.1841 7.58305 18.22 7.77358 18.2187C12.7273 18.2162 17.6798 18.2162 22.6336 18.2187C22.8035 18.2187 23.0301 18.1789 23.1331 18.2688C23.3532 18.4588 23.6532 18.7246 23.6506 18.9545C23.648 19.183 23.3442 19.4539 23.1086 19.6144C22.958 19.7171 22.6928 19.6619 22.4791 19.6619C20.0357 19.6645 17.591 19.6645 15.1463 19.6645Z" fill="white"/>
<path d="M16.6281 23.1979C15.5133 23.1979 14.3997 23.1915 13.2848 23.2018C12.7931 23.2056 12.4004 23.0503 12.3811 22.5187C12.3605 21.9435 12.7699 21.7676 13.2848 21.7676C15.5133 21.7689 17.7417 21.7676 19.9701 21.7689C20.4541 21.7689 20.8442 21.9422 20.8416 22.4866C20.8391 23.0246 20.4657 23.2018 19.9701 23.1992C18.8578 23.1941 17.743 23.1979 16.6281 23.1979Z" fill="white"/>
<path d="M10.5826 14.6946C11.5687 14.6946 12.5548 14.7023 13.5422 14.692C14.0649 14.6869 14.4743 14.8679 14.4614 15.429C14.4498 15.9452 14.0482 16.1288 13.5577 16.1288C11.5635 16.1249 9.56942 16.1275 7.5753 16.1262C7.08611 16.1262 6.69475 15.9349 6.68831 15.4123C6.68188 14.8872 7.06036 14.6907 7.55986 14.6933C8.56657 14.6984 9.57457 14.6946 10.5826 14.6946Z" fill="white"/>
<path d="M26.1843 23.1977C25.1981 23.1977 24.2107 23.19 23.2246 23.2016C22.7303 23.208 22.3325 23.0385 22.3145 22.5185C22.2939 21.9549 22.7084 21.7674 23.2246 21.7674C25.1969 21.7687 27.1704 21.77 29.1426 21.7661C29.6511 21.7648 30.0875 21.9253 30.0863 22.4877C30.085 23.0488 29.6601 23.208 29.1426 23.2016C28.1565 23.1888 27.1704 23.1977 26.1843 23.1977Z" fill="white"/>
<path d="M13.0815 26.7416C12.2022 26.7416 11.323 26.7429 10.445 26.7416C9.97253 26.7416 9.55543 26.6119 9.53225 26.0637C9.50779 25.4769 9.93391 25.3023 10.4321 25.2997C12.1907 25.2907 13.9479 25.292 15.7064 25.2997C16.1815 25.3023 16.5818 25.4808 16.5883 26.02C16.5947 26.567 16.2021 26.7365 15.7193 26.7391C14.84 26.7442 13.9608 26.7416 13.0815 26.7416Z" fill="white"/>
<path d="M22.3156 14.6943C23.1936 14.6943 24.0728 14.6981 24.9508 14.693C25.4465 14.6904 25.8224 14.874 25.8185 15.4094C25.8146 15.9436 25.4284 16.1259 24.9405 16.1259C23.1833 16.1272 21.4273 16.1259 19.6701 16.1272C19.1847 16.1272 18.7818 15.9551 18.7676 15.4313C18.7522 14.8625 19.1629 14.6878 19.6804 14.693C20.5584 14.6994 21.4376 14.6943 22.3156 14.6943Z" fill="#B1BDC8"/>
<path d="M27.2564 19.6619C26.614 19.6619 25.9717 19.667 25.3306 19.6606C24.8504 19.6568 24.4551 19.4924 24.4539 18.9467C24.4526 18.4075 24.8362 18.2226 25.3203 18.22C26.6256 18.2149 27.931 18.2136 29.2364 18.2213C29.7269 18.2238 30.0976 18.4421 30.0848 18.9698C30.0732 19.4629 29.7076 19.6555 29.2454 19.6606C28.5824 19.6657 27.9194 19.6619 27.2564 19.6619Z" fill="white"/>
<path d="M9.56676 11.1442C10.2092 11.1442 10.8503 11.1429 11.4927 11.1442C11.9613 11.1455 12.3063 11.3432 12.323 11.8376C12.3397 12.3383 11.9999 12.5656 11.5339 12.5694C10.186 12.5823 8.83812 12.5823 7.49025 12.5707C7.02423 12.5681 6.67793 12.3357 6.68694 11.8465C6.69724 11.3612 7.04096 11.1468 7.51342 11.1442C8.1983 11.1416 8.88189 11.1442 9.56676 11.1442Z" fill="white"/>
<path d="M8.78034 23.1967C8.35293 23.1967 7.92553 23.1967 7.49813 23.1967C7.01794 23.1967 6.68838 22.9643 6.68581 22.4867C6.68323 22.0027 7.03339 21.7767 7.49942 21.7715C8.37482 21.7626 9.25151 21.7587 10.1269 21.7741C10.5955 21.7831 10.9238 22.0283 10.9032 22.5188C10.8839 22.9656 10.5775 23.1929 10.1256 23.1955C9.67763 23.198 9.22834 23.1967 8.78034 23.1967Z" fill="white"/>
<path d="M28.7101 14.7018C28.9444 14.7018 29.1812 14.6838 29.413 14.7056C29.8352 14.7442 30.1455 15.0138 30.0708 15.4054C30.0206 15.6686 29.7103 16.0114 29.4542 16.0782C29.0139 16.1925 28.5234 16.1385 28.0561 16.118C27.5926 16.0975 27.2631 15.8535 27.2875 15.3656C27.3094 14.9162 27.6248 14.7031 28.0715 14.6966C28.2852 14.6941 28.4976 14.6966 28.7113 14.6966C28.7101 14.6979 28.7101 14.6992 28.7101 14.7018Z" fill="white"/>
<path d="M15.8209 15.2424C16.0874 15.0652 16.3371 14.7802 16.6242 14.7378C17.04 14.6762 17.2962 14.9869 17.291 15.4157C17.2846 15.8458 17.0091 16.1476 16.6049 16.0808C16.3204 16.0333 16.0784 15.7303 15.817 15.5415C15.8183 15.4414 15.8196 15.3412 15.8209 15.2424Z" fill="white"/>
<path d="M7.33595 25.0483C7.68097 25.4823 7.99637 25.7096 8.0543 25.9895C8.14442 26.426 7.82386 26.7085 7.37972 26.7162C6.96133 26.7239 6.64979 26.4479 6.70386 26.0498C6.74119 25.7648 7.02956 25.5119 7.33595 25.0483Z" fill="white"/>
</svg>
