<svg width="19" height="19" viewBox="0 0 19 19" fill="none" xmlns="http://www.w3.org/2000/svg">
<path d="M9.3967 18.0342C7.96841 18.0342 6.54012 18.0537 5.11183 18.0298C2.52552 17.9822 0.985164 16.4204 0.96319 13.8536C0.956598 13.167 0.967585 12.4803 0.958796 11.7959C0.950006 11.1612 1.07306 10.5699 1.85752 10.585C2.57167 10.598 2.69032 11.1504 2.67714 11.7504C2.66176 12.5453 2.64857 13.3403 2.68153 14.1331C2.73427 15.4457 3.56708 16.3186 4.90308 16.336C7.94204 16.3749 10.981 16.3728 14.02 16.3381C15.4087 16.323 16.2437 15.4414 16.2855 14.0659C16.3118 13.2363 16.2042 12.3915 16.3338 11.5814C16.3931 11.2089 16.8831 10.9034 17.1776 10.5677C17.4523 10.8905 17.9313 11.1937 17.9664 11.5424C18.0675 12.5432 18.0653 13.5677 17.9686 14.5706C17.7709 16.6002 16.1844 17.9475 14.009 18.0363C13.9365 18.0385 13.8618 18.0385 13.7892 18.0385C12.3258 18.0342 10.8623 18.0342 9.3967 18.0342Z" fill="white"/>
<path d="M8.76669 10.9664C8.76669 8.0197 8.76669 5.35896 8.76669 2.69822C8.76669 2.37321 8.67046 1.9962 8.80091 1.73836C8.96771 1.40902 9.31843 0.960507 9.59216 0.95834C9.87017 0.956174 10.3214 1.39602 10.3941 1.71453C10.5267 2.29738 10.4411 2.93223 10.4411 3.54541C10.4433 5.92231 10.4411 8.29704 10.4411 10.9556C11.164 10.2753 11.7243 9.75958 12.2696 9.2309C12.7165 8.79756 13.2661 8.40755 13.6938 9.05106C13.8799 9.33057 13.7045 10.1019 13.4286 10.4053C12.492 11.4388 11.427 12.3532 10.4347 13.3368C9.86589 13.9024 9.35906 13.924 8.78166 13.3498C7.76373 12.3402 6.718 11.3608 5.6851 10.3663C5.24456 9.94375 4.99008 9.39124 5.55251 9.00339C5.82196 8.81706 6.48918 8.94923 6.81637 9.17457C7.45365 9.61441 7.97758 10.2233 8.76669 10.9664Z" fill="white"/>
</svg>
